<?xml version="1.0" standalone="no"?><!DOCTYPE svg PUBLIC "-//W3C//DTD SVG 1.1//EN" "http://www.w3.org/Graphics/SVG/1.1/DTD/svg11.dtd"><svg t="1755154276025" class="icon" viewBox="0 0 1024 1024" version="1.1" xmlns="http://www.w3.org/2000/svg" p-id="15747" xmlns:xlink="http://www.w3.org/1999/xlink" width="200" height="200"><path d="M471.2 265.7c0 28.2-22.8 51-51 51s-51-22.8-51-51 22.8-51 51-51 51 22.8 51 51z m-204 386.1c0 24.1-19.6 43.7-43.7 43.7s-43.7-19.6-43.7-43.7 19.6-43.7 43.7-43.7 43.7 19.6 43.7 43.7z m0 0" fill="#74A2CA" p-id="15748"></path><path d="M617 535.2c0 48.3-39.2 87.4-87.4 87.4s-87.4-39.1-87.4-87.4c0-48.3 39.1-87.4 87.4-87.4S617 487 617 535.2z m0 0" fill="#EEAC38" p-id="15749"></path><path d="M531.7 633.3c-54 0-98-44-98-98s44-98 98-98 98 44 98 98-44 98-98 98z m0-167.4c-38.2 0-69.3 31.1-69.3 69.3 0 38.2 31.1 69.3 69.3 69.3 38.2 0 69.3-31.1 69.3-69.3 0-38.2-31.1-69.3-69.3-69.3zM291.8 680.8c18.7 3.5 38.4 6.6 58.4 9.2l3.7-28.5c-19.5-2.5-38.6-5.5-56.8-8.9l-5.3 28.2zM180 449.5l-10.2-26.8c-20.7 7.9-39.2 16.6-54.9 25.7l14.5 24.8c14.3-8.4 31.3-16.3 50.6-23.7zM515 399h4.2l0.1-28.7H515c-18.3 0-36.7 0.4-54.6 1.1l1.1 28.7c17.6-0.7 35.6-1.1 53.5-1.1z m0 301.2c3.9 0 7.8 0 11.6-0.1l-0.2-28.7c-19.1 0.2-38.6-0.1-57.7-0.7l-0.2 5.2-15.1 15.8c14.3 13.6 29 27 43.6 39.7l18.8-21.6c-3.7-3.2-7.3-6.4-11-9.7 3.4 0.1 6.8 0.1 10.2 0.1z m180.6-317.5c-19-2.7-38.7-5-58.6-6.9l-2.6 28.6c19.4 1.8 38.7 4 57.2 6.7l4-28.4zM119.7 624.8c15.9 8.9 34.4 17.3 55.1 24.9l9.9-26.9c-19.3-7.1-36.5-14.8-51.1-23l-13.9 25zM107 488.4L89.1 466c-21.1 16.8-34 35-38.5 54.2l27.9 6.5c3-12.8 12.6-25.7 28.5-38.3z m441.7-117.7l-0.7 28.7c12.2 0.3 24.4 0.8 36.5 1.4 0.9 0.8 1.7 1.5 2.6 2.3l1.8-2.1c5.6 0.3 11.2 0.6 16.7 1l2-28.6c-3.8-0.3-7.7-0.5-11.6-0.7-11.5-10.1-23.1-19.9-34.7-29.3l-18.1 22.3c2 1.6 4.1 3.3 6.1 5h-0.6zM79.6 547.5l-27.2 9c6.1 18.3 19.9 35.6 41.2 51.5l17.2-23c-16.6-12.3-27-24.9-31.2-37.5zM556 699.6c19.8-0.6 39.6-1.6 58.9-3l-2.1-28.6c-18.9 1.4-38.3 2.4-57.6 3l0.8 28.6z m312.2-273.7c-17.2-6.9-36.2-13.3-56.6-19.1l-7.8 27.6c19.5 5.5 37.5 11.6 53.8 18.2l10.6-26.7z m-85.4-26.7c-18.4-4.4-37.9-8.4-58-11.9l-4.9 28.3c19.5 3.4 38.4 7.2 56.2 11.5l6.7-27.9z m-492.9 20.1c18.2-3.5 37.2-6.7 56.7-9.3l-3.9-28.4c-20 2.7-39.7 5.9-58.3 9.6l5.5 28.1z m679.5 77.6L945 512.1c4.8 7.7 7.3 15.5 7.3 23.2 0 6-1.5 12.1-4.4 18.1l25.8 12.6c4.9-10 7.4-20.3 7.4-30.7-0.1-13.1-4-26-11.7-38.4z m-80 106.6l13.3 25.4c21.2-11.1 38.4-23.1 51.1-35.8l-20.3-20.3c-10.7 10.6-25.5 20.9-44.1 30.7z m58.4-131.6c-13.4-12-30.9-23.3-52-33.7l-12.7 25.7c18.8 9.3 34.1 19.2 45.6 29.4l19.1-21.4zM783 641.7c-17.7 4.4-36.6 8.5-56.1 12l5.1 28.2c20.1-3.6 39.6-7.8 58-12.4l-7-27.8zM375.2 406.4c18.7-2.1 38-3.7 57.4-4.9l-1.8-28.6c-19.8 1.2-39.6 2.9-58.8 5l3.2 28.5zM644.3 694c19.9-2 39.6-4.4 58.6-7.3l-4.3-28.4c-18.5 2.8-37.7 5.2-57.1 7.1l2.8 28.6z m230.9-52.2L864 615.3c-12.7 5.4-26.7 10.5-41.6 15.2-6.3-9.8-12.9-19.8-19.9-29.8L779 617.1c11.3 16.3 21.8 32.4 31.2 48.1l8.1-4.9 0.4 1.3c20.5-6 39.5-12.7 56.5-19.8z m-225.5-179l20.4-20.1c-2.6-2.6-5.1-5.2-7.8-7.8-11.3-11.3-22.9-22.5-34.4-33.3l-19.6 21c11.3 10.5 22.6 21.5 33.7 32.6 2.6 2.5 5.2 5 7.7 7.6z m135.7 113.9c-11.4-15.4-23.6-31.1-36.3-46.5l-22.2 18.2c12.4 15.1 24.3 30.4 35.4 45.4l23.1-17.1zM537 325.2c-16-12.3-32-24-47.8-34.8L473 314.1c15.3 10.5 30.9 21.8 46.5 33.8l17.5-22.7z m193 182.4c-12.6-14.6-25.9-29.4-39.5-43.8l-20.9 19.7c13.3 14.1 26.3 28.5 38.6 42.8l21.8-18.7zM384.9 230c-20-9.2-39.1-16.4-56.6-21.4l-7.8 27.6c16.1 4.5 33.7 11.2 52.4 19.8l12-26z m64.5 417.8c-12.6-12.6-25-25.5-36.9-38.4l-21.1 19.5c12.2 13.2 24.9 26.4 37.7 39.2l0.7 0.7c-16-1-31.9-2.3-47.4-3.9l-2.9 28.5c19.2 2 39 3.6 58.8 4.7l1.6-28.6-5.4-0.3 18-18.2-3.1-3.2z m297.2 241.7c22.3 7.6 42.7 11.9 60.6 12.9l1.6-28.6c-15.3-0.9-33.2-4.7-53-11.4l-9.2 27.1z m128.9-159.2c-7-17.1-15.7-35.3-25.9-54L824.4 690c9.7 17.8 17.9 35 24.5 51.1l26.6-10.8zM664.8 852.2c18.5 10.3 36.6 19.3 53.6 26.5l11.3-26.4c-16.1-6.9-33.2-15.3-50.9-25.2l-14 25.1z m193.7-84.8c6.3 20 9.6 37.8 9.7 52.9l28.7-0.2c-0.1-18-3.8-38.6-11-61.4l-27.4 8.7z m-268.9 37.2c16.7 11.8 33.3 22.7 49.5 32.6l15-24.5c-15.6-9.5-31.7-20.2-47.9-31.6l-16.6 23.5zM294 230.4l4.1-28.4c-26.3-3.8-48.4-1.3-65.6 7.3l12.9 25.7c11.7-5.9 28.3-7.5 48.6-4.6z m561 630.4c-5.4 5.4-12.5 9.1-21.3 11.2l6.6 27.9c14.1-3.3 25.9-9.7 35-18.8 7.5-7.5 13.1-16.8 16.7-27.6l-27.2-9.1c-2.2 6.5-5.5 12-9.8 16.4zM222.1 282c0-13.6 2.6-24.7 7.7-33l-24.4-15c-8 12.9-12 29.1-12 48.1 0 5.6 0.4 11.5 1.1 17.6l28.5-3.3c-0.6-5-0.9-9.9-0.9-14.4z m-20.6 48.2c4.6 17.6 11.6 36.7 20.7 57l26.2-11.8c-8.4-18.8-14.9-36.5-19.1-52.5l-27.8 7.3z m87.6 120.3c-10.6-17-20.2-33.6-28.4-49.5l-3.9 2-1.3-5.8c-20.3 4.7-39.6 9.9-57.4 15.6l8.7 27.3c11.6-3.7 23.9-7.2 36.7-10.5 6.5 11.8 13.6 23.9 21.3 36.1l24.3-15.2z m230.3 300.1c15.4 12.8 31 25.1 46.3 36.6l17.2-23c-15-11.2-30.2-23.2-45.2-35.7l-18.3 22.1zM356 543.9l-22.4 18c12.1 15 24.8 30.2 38 45.1l21.5-19c-12.8-14.6-25.3-29.4-37.1-44.1z m-17.7-22.6c-11.9-15.6-23.2-31.3-33.5-46.7l-23.8 16c10.7 15.8 22.3 32 34.5 48l22.8-17.3z m0 0" fill="#231815" p-id="15750"></path><path d="M422.1 321c-14.9 0-29.7-5.7-41.1-17-11-11-17-25.5-17-41.1 0-15.5 6-30.1 17-41.1s25.5-17 41.1-17c15.5 0 30.1 6 41.1 17 22.6 22.6 22.6 59.5 0 82.1-11.4 11.4-26.3 17.1-41.1 17.1z m0-87.4c-7.8 0-15.2 3.1-20.8 8.6-5.5 5.6-8.6 12.9-8.6 20.8 0 7.8 3.1 15.2 8.6 20.8 11.5 11.4 30.1 11.5 41.5 0 11.5-11.4 11.5-30.1 0-41.5-5.5-5.7-12.9-8.7-20.7-8.7z m0 0" fill="#1C1C1A" p-id="15751"></path><path d="M121.5 783.2h29.1v28.7h-29.1z m87.4 102H238v28.7h-29.1z m189.5-72.9h29.1V841h-29.1z m131.1 116.6h29.1v28.7h-29.1z m306-626.6h29.1V331h-29.1z m-29.1 174.9h29.1v28.7h-29.1z m-612 29.1h29.1V535h-29.1z m-87.5-189.4H136v28.7h-29.1zM222.3 98.3h29.1V127h-29.1z m-116.5 58.3h29.1v28.7h-29.1z m554.9 0h29.1v28.7h-29.1z m247.7-58.3h29.1V127h-29.1zM821 171.2h29.1v28.7H821zM455.5 98.3h29.1V127h-29.1z m132.3 160.3h29.1v28.7h-29.1z m306 670.3h29.1v28.7h-29.1z" fill="#231815" p-id="15752"></path><path d="M223.5 709.9c-32 0-58.1-26-58.1-58.1 0-32 26-58.1 58.1-58.1 32 0 58.1 26 58.1 58.1s-26.1 58.1-58.1 58.1z m0-87.4c-16.2 0-29.4 13.2-29.4 29.4s13.2 29.4 29.4 29.4 29.4-13.2 29.4-29.4c0-16.3-13.2-29.4-29.4-29.4z m0 0" fill="#1C1C1A" p-id="15753"></path></svg>